# xmcd
#
# Track frame offsets:
#	150
#	16665
#	29214
#	47680
#	68813
#	87189
#	103474
#	119057
#	134412
#	153611
#	169980
#	182703
#	201753
#	218859
#	232244
#
# Disc length: 3331 seconds
#
# Revision: 1
# Processed by: cddbd v1.5.2PL0 Copyright (c) Steve Scherf et al.
# Submitted via: audiograbber 1.83.01
#
DISCID=e50d010f
DTITLE=Various Artist - CDX 573
DYEAR=2013
DGENRE=Country
TTITLE0=Toby Keith - Drinks After Work
TTITLE1=Crow Medicine Show - Carry Me Back To Virginia
TTITLE2=Blue Sky Riders - Feelin' Brave
TTITLE3=Tracy Lawrence - Footprints On The Moon
TTITLE4=Jason Sturgeon - Angel Eyes
TTITLE5=Logan Tudeen - Circles
TTITLE6=Jared Blake - Countryfied
TTITLE7=Jay Jolley - God Save Us All From Religion (Radio_Edit)
TTITLE8=Doug Newnum and SOS Renewal - Gonna Give You Praise
TTITLE9=North 40 - Hey Girl Hey
TTITLE10=Cerrito - Hot Pepper Doll
TTITLE11=Burly Clyde - Living In America
TTITLE12=Kari and Billy - Play Me A Fiddle Song
TTITLE13=Blackjack Billy - The Booze Cruise
TTITLE14=Joe - Final Curtain Call
EXTD=
EXTT0=
EXTT1=
EXTT2=
EXTT3=
EXTT4=
EXTT5=
EXTT6=
EXTT7=
EXTT8=
EXTT9=
EXTT10=
EXTT11=
EXTT12=
EXTT13=
EXTT14=
PLAYORDER=
